<svg xmlns="http://www.w3.org/2000/svg" width="409" height="139" viewBox="0 0 409 139">
  <g id="Group_2" data-name="Group 2" transform="translate(-410 -1472)">
    <path id="Netflix_2015_logo" d="M56.1,91.4c-6.138.955-12.383,1.241-18.844,2L17.552,42.268V95.6C11.414,96.176,5.815,96.939,0,97.7V0H16.368l22.4,55.435V0H56.1V91.4ZM90.021,35.78c6.677,0,16.906-.286,23.044-.286V50.759c-7.646,0-16.583,0-23.044.286V73.754c10.122-.572,20.244-1.336,30.473-1.623V86.824l-47.7,3.34V0h47.7V15.266H90.021Zm94.543-20.513H166.689V85.49c-5.815,0-11.63,0-17.228.19V15.266H131.586V0h52.978V15.266Zm28,19.464h23.582V50H212.56V84.631H195.653V0h48.134V15.266H212.56V34.73Zm59.224,36.543c9.8.19,19.705.859,29.289,1.336V87.684c-15.4-.859-30.8-1.717-46.518-2V0h17.228ZM315.61,88.733c5.492.287,11.306.573,16.906,1.145V0H315.61ZM408,0,386.141,46.466,408,97.7c-6.461-.763-12.922-1.813-19.383-2.767L376.234,66.694l-12.6,25.952c-6.247-.955-12.277-1.241-18.521-2L367.3,45.893,347.269,0h18.52L377.1,25.666,389.156,0H408Z" transform="translate(410 1472)" fill="#d81f26"/>
    <text id="Suggests_Extension" data-name="Suggests Extension" transform="translate(543 1605)" font-size="30" font-family="Graphik-Regular, Graphik"><tspan x="0" y="0">Suggests Extension</tspan></text>
    <line id="Line_1" data-name="Line 1" x2="111" transform="translate(410.5 1595.5)" fill="none" stroke="#d81f26" stroke-width="5"/>
  </g>
</svg>
